<svg width="187" height="189" viewBox="0 0 187 189" fill="none" xmlns="http://www.w3.org/2000/svg">
<path fill-rule="evenodd" clip-rule="evenodd" d="M2.594 2.36849L0 4.96248V73.3975C0 138.131 0.0989981 141.954 1.823 144.084C3.424 146.061 5.041 146.448 15.073 147.258C42.147 149.445 60.271 156.744 76.233 171.886C79.386 174.878 83.34 179.467 85.019 182.084C88.578 187.63 92.819 189.912 96.47 188.249C97.779 187.652 100.652 184.512 102.854 181.269C112.304 167.353 129.56 155.612 147.145 151.135C156.31 148.801 168.294 147.053 175.122 147.053C181.042 147.053 185.761 144.871 186.518 141.785C186.819 140.557 186.938 109.027 186.783 71.7145L186.5 3.87648L184.139 1.9645C179.324 -1.9335 155.113 0.246475 138.638 6.06047C121.793 12.0065 104.349 24.5745 95.771 36.9465L94.111 39.3395L91.369 35.9465C73.539 13.8835 48.349 1.68249 17.844 0.333485C5.224 -0.224515 5.182 -0.219511 2.594 2.36849ZM16 73.3915V131.73L26.25 133.017C47.919 135.738 69.745 144.914 81.75 156.35L85 159.446V106.36V53.2735L80.677 47.4015C69.001 31.5405 50.152 20.1825 29.539 16.5885C24.699 15.7445 19.672 15.0535 18.369 15.0535H16V73.3915ZM159.758 16.1385C150.667 17.4705 136.131 22.7795 128.396 27.5925C120.602 32.4425 108.697 44.3005 104.596 51.2995L101.982 55.7605L102.241 106.923L102.5 158.084L107.425 154.014C121.204 142.627 138.979 135.668 161.285 132.926L171 131.732V73.3935V15.0535L168.25 15.1755C166.738 15.2425 162.916 15.6755 159.758 16.1385Z" fill="#45483B"/>
</svg>
